<svg width="104" height="104" fill="none" xmlns="http://www.w3.org/2000/svg"><path d="M83.27 41.76c-7.918-3.355-18.552-5.527-29.909-6.12a86.108 86.108 0 00-5.253-.155c8.396-10.214 17.404-17.072 23.337-17.294 1.164-.044 2.154.197 2.948.704 2.564 1.666 3.27 6.392 1.968 12.966-.141.902.438 1.79 1.303 1.961a1.67 1.67 0 001.717-.698c.123-.181.208-.385.251-.6 1.629-8.236.424-13.897-3.412-16.392-1.373-.902-3.046-1.33-4.903-1.257-7.42.282-17.899 8.31-27.516 20.67a94.94 94.94 0 00-11.711 1.029c-2.338-10.469-1.417-17.974 2.153-19.78.493-.27 1.034-.394 1.656-.453 2.535-.195 6.018 1.427 9.83 4.585.707.577 1.753.507 2.335-.214a1.64 1.64 0 00.2-1.826 1.643 1.643 0 00-.41-.5c-4.575-3.768-8.779-5.615-12.224-5.363a8.115 8.115 0 00-2.915.79c-4.32 2.2-6.047 8.408-4.97 17.48.253 1.873.58 3.835 1.063 5.839-11.898 2.37-19.47 7.126-19.797 13.09-.228 4.234 3.13 8.254 9.712 11.64a1.658 1.658 0 002.24-.718 1.642 1.642 0 00-.725-2.232c-5.253-2.695-8.084-5.729-7.915-8.505.185-3.909 6.427-7.917 17.263-10.044a98.33 98.33 0 003.806 11.157c-3.695 6.815-6.373 13.532-7.743 19.5-2.042 8.902-.95 15.251 3.113 17.873 1.302.845 2.817 1.27 4.516 1.27 3.385 0 7.491-1.665 12.138-4.964a1.661 1.661 0 00.674-1.075 1.65 1.65 0 00-.759-1.677 1.667 1.667 0 00-1.846.057c-5.593 3.99-10.307 5.317-12.912 3.621-2.75-1.79-3.358-7.01-1.656-14.358 1.145-5.008 3.285-10.583 6.188-16.325a140.39 140.39 0 002.282 4.743c5.169 10.1 11.498 18.873 17.801 24.732C60.216 89.573 64.89 92 68.726 92c1.275 0 2.466-.27 3.543-.805 4.147-2.115 5.95-7.984 5.068-16.52-.805-7.998-3.836-17.735-8.537-27.453a1.676 1.676 0 00-2.208-.777 1.669 1.669 0 00-.954 1.587c.011.219.065.433.16.63 9.742 20.228 10.438 36.791 4.97 39.57-5.778 2.947-19.672-8.507-30.42-29.542a97.223 97.223 0 01-3.271-6.97c1.231-2.185 2.534-4.401 3.98-6.6a117.946 117.946 0 014.43-6.306h1.433c1.955 0 4.078.043 6.286.17 23.664 1.244 39.782 9.253 39.456 15.659-.142 2.763-3.358 5.558-8.796 7.66a1.652 1.652 0 00-.037 3.024c.39.18.835.203 1.241.064 6.91-2.666 10.705-6.336 10.92-10.577.253-4.8-4.234-9.426-12.69-13.01v-.03l-.03-.013zm-45.019 1.526a105.37 105.37 0 00-2.762 4.499 84.895 84.895 0 01-2.619-7.999 88.603 88.603 0 018.367-.875 90.085 90.085 0 00-2.972 4.375v-.04l-.014.04zm14.232 4.247c-6.643 0-6.643 9.932 0 9.932 6.656 0 6.656-9.932 0-9.932z" fill="#C7DF9E"/></svg>