<svg width="117" height="104" fill="none" xmlns="http://www.w3.org/2000/svg"><path d="M56.403 51.1c1.154 1.213 3.034 1.213 4.205 0l17.96-18.736c5.212-5.446 4.915-14.47-.923-19.49-5.08-4.38-12.65-3.592-17.3 1.264l-1.848 1.92-1.83-1.904c-4.651-4.872-12.22-5.66-17.3-1.28-5.822 5.02-6.136 14.044-.924 19.49L56.403 51.1zm47.827 12.73c-1.946-1.755-4.98-1.64-7.026 0L81.966 75.954a10.535 10.535 0 01-6.597 2.297h-19.51a2.64 2.64 0 01-2.64-2.625A2.64 2.64 0 0155.86 73h12.913c2.622 0 5.063-1.788 5.492-4.364.544-3.281-1.996-6.136-5.212-6.136H42.665a19.474 19.474 0 00-12.22 4.315L22.775 73H13.64A2.64 2.64 0 0011 75.626v15.75A2.64 2.64 0 0013.639 94h58.844c2.391 0 4.716-.804 6.597-2.297l24.936-19.85a5.23 5.23 0 00.214-8.023z" stroke="#C7DF9E" stroke-width="4"/></svg>