<svg width="104" height="104" fill="none" xmlns="http://www.w3.org/2000/svg"><path d="M90.949 41.017c.037.172.07.35.032.523-.08.379-.411.232-.705.109-2.15-.898-4.305-1.777-6.432-2.722-.672-.294-.934-.164-1.267.483-8.23 16.044-19.522 29.444-34.637 39.483a81.51 81.51 0 01-32.482 12.693 77.46 77.46 0 01-2.909.412v0c-.277.03-.386-.514-.128-.62v0c19-7.735 33.1-20.984 43.421-38.445 3.874-6.553 6.808-13.532 9.08-20.788.313-1 .309-1.005-.672-1.418-1.696-.71-3.395-1.411-5.085-2.133l-.008-.004c-.34-.15-.385-.729-.065-.92v0c8.086-4.815 16.175-9.625 24.267-14.43.669-.395.803-.337.988.432 2.203 9.116 4.403 18.23 6.602 27.345v0z" stroke="#C7DF9E" stroke-width="4"/></svg>