<svg width="104" height="104" fill="none" xmlns="http://www.w3.org/2000/svg"><path fill-rule="evenodd" clip-rule="evenodd" d="M51.5 14.625c-13.533 0-22.91 9.718-22.91 21.563 0 5.657 2.43 9.343 5.637 13.247l1.225 1.455c1.277 1.518 2.692 3.197 3.855 4.876 1.626 2.364 3.075 5.152 3.556 8.568a4.325 4.325 0 01-.887 3.1 4.282 4.282 0 01-5.9.842 4.315 4.315 0 01-1.712-2.729c-.23-1.621-.933-3.145-2.12-4.87a49.935 49.935 0 00-3.103-3.91c-.481-.575-.991-1.179-1.535-1.84C24.015 50.563 20 44.904 20 36.187 20 19.284 33.533 6 51.5 6 69.466 6 83 19.282 83 36.188c0 8.716-4.015 14.374-7.606 18.739-.544.661-1.054 1.265-1.535 1.834-1.185 1.409-2.193 2.605-3.098 3.916-1.191 1.725-1.89 3.248-2.12 4.87a4.322 4.322 0 01-1.674 2.84 4.288 4.288 0 01-3.185.82 4.286 4.286 0 01-2.829-1.682 4.32 4.32 0 01-.816-3.197c.48-3.41 1.93-6.199 3.556-8.562 1.163-1.679 2.578-3.358 3.855-4.876.43-.506.842-.995 1.22-1.455 3.213-3.904 5.641-7.59 5.641-13.248 0-11.844-9.376-21.562-22.909-21.562zM40.045 93.688c0-1.144.453-2.241 1.259-3.05a4.287 4.287 0 013.037-1.263h14.318c1.14 0 2.232.454 3.037 1.263a4.321 4.321 0 010 6.099A4.287 4.287 0 0158.66 98H44.341a4.287 4.287 0 01-3.037-1.263 4.321 4.321 0 01-1.259-3.05zM38.614 75c-1.14 0-2.232.454-3.038 1.263a4.321 4.321 0 000 6.099 4.287 4.287 0 003.038 1.263h25.772c1.14 0 2.232-.454 3.038-1.263a4.321 4.321 0 000-6.099A4.287 4.287 0 0064.386 75H38.614z" fill="#C7DF9E" stroke="#fff" stroke-width="4"/></svg>