<svg width="164" height="80" fill="none" xmlns="http://www.w3.org/2000/svg"><path d="M3.078 23.275h7.01c1.15 0 2.044.071 2.682.213a4.204 4.204 0 011.752.823c1.275.956 1.912 2.24 1.912 3.85 0 1.823-.832 3.115-2.496 3.877a4.261 4.261 0 012.416 1.726c.602.867.903 1.885.903 3.053 0 1.894-.7 3.373-2.098 4.435-.495.371-1.097.637-1.805.796-.708.16-1.735.24-3.08.24H3.078V23.274zm2.655 2.39v5.523h4.487c1.169 0 2.027-.212 2.576-.637.567-.443.85-1.107.85-1.992 0-1.027-.284-1.761-.85-2.204-.549-.46-1.487-.69-2.815-.69H5.733zm0 7.913v6.32h4.301c1.346 0 2.417-.213 3.213-.638.815-.442 1.222-1.274 1.222-2.496 0-2.124-1.399-3.186-4.195-3.186H5.732zm14.705-.611c0-2.036.372-3.815 1.115-5.337.762-1.522 1.85-2.69 3.267-3.505 1.416-.814 3.053-1.222 4.912-1.222 1.398 0 2.655.23 3.77.69a7.793 7.793 0 012.895 1.94c.796.849 1.407 1.858 1.832 3.026.425 1.169.637 2.523.637 4.063 0 1.859-.363 3.558-1.089 5.098a8.295 8.295 0 01-3.186 3.611c-1.398.868-3.071 1.301-5.018 1.301-1.895 0-3.523-.389-4.886-1.168-1.363-.779-2.417-1.903-3.16-3.372-.726-1.487-1.089-3.195-1.089-5.125zm2.788-.053c0 2.23.576 4.01 1.726 5.337 1.15 1.328 2.726 1.992 4.727 1.992 2.018 0 3.593-.673 4.726-2.018 1.15-1.364 1.726-3.231 1.726-5.603 0-.744-.062-1.434-.186-2.071a7.647 7.647 0 00-.584-1.832c-.531-1.116-1.292-1.965-2.283-2.55-.974-.584-2.107-.876-3.4-.876-2.035 0-3.62.682-4.752 2.045-1.133 1.363-1.7 3.222-1.7 5.576zm20.289-9.639h6.426c1.593 0 2.797.089 3.611.266a5.301 5.301 0 012.284 1.115c1.009.779 1.806 1.859 2.39 3.24.584 1.38.876 2.956.876 4.726 0 1.47-.221 2.859-.664 4.169-.443 1.31-1.062 2.398-1.859 3.266-.779.85-1.655 1.434-2.628 1.752-.956.319-2.23.478-3.824.478h-6.612V23.275zm2.655 2.39v14.233h3.798c1.805 0 3.097-.275 3.876-.824 1.682-1.221 2.523-3.39 2.523-6.505 0-1.434-.204-2.656-.61-3.665-.408-1.026-1.001-1.805-1.78-2.336-.903-.602-2.266-.903-4.09-.903H46.17zm14.917-2.39h3.134l5.655 9.002 5.47-9.002h3.134l-7.276 11.498v7.514h-2.682v-7.514l-7.435-11.498zm27.636 0h15.242v2.39h-6.293v16.622h-2.709V25.665h-6.24v-2.39zm19.149 0h2.656v19.012h-2.656V23.275zm8.576 0h3.771l4.833 15.879 4.806-15.879h3.744v19.012h-2.682V27.046l-4.7 15.241h-2.47l-4.646-15.294v15.294h-2.656V23.275zm23.123 0h13.649v2.39h-10.993v5.576h10.17v2.39h-10.17v6.267h11.125v2.39h-13.781V23.274zM3.034 60.051h5.119v.896H4.03v2.091h3.814v.897H4.03v2.35h4.172v.896H3.034v-7.13zm18.46 0h1.045l2.55 7.13h-1.086l-.707-2.121h-2.738l-.747 2.12h-1.066l2.749-7.129zm.478 1.086l-1.086 3.116h2.131l-1.045-3.116zm13.58 3.664h1.045c0 .352.037.62.11.807.046.165.182.325.408.477.352.22.803.33 1.354.33.332 0 .634-.047.906-.14.272-.093.475-.226.608-.399a.91.91 0 00.209-.587c0-.359-.289-.644-.867-.856l-2.16-.807c-.89-.319-1.335-.87-1.335-1.653 0-.345.07-.644.21-.896a1.93 1.93 0 01.607-.667c.219-.153.491-.279.816-.379.3-.08.605-.12.916-.12 1.056 0 1.813.323 2.27.967.107.152.187.335.24.547.06.213.09.475.09.787h-1.046c0-.365-.053-.637-.16-.816-.106-.16-.292-.296-.557-.409a2.063 2.063 0 00-.856-.179c-.452 0-.817.106-1.096.319-.272.206-.408.458-.408.756 0 .213.053.379.16.498.106.113.301.223.587.329l2.28.846c.903.332 1.354.873 1.354 1.623 0 .332-.086.648-.259.946a2.138 2.138 0 01-.697.747c-.418.292-1.035.438-1.852.438-.929 0-1.643-.196-2.14-.587-.492-.392-.737-.953-.737-1.683v-.239zm16.059-4.75h1.175l2.12 3.376 2.052-3.376h1.175l-2.728 4.312v2.818h-1.006v-2.818l-2.788-4.312zm29.571 4.75h1.046c0 .352.036.62.11.807.046.165.182.325.408.477.352.22.803.33 1.354.33.332 0 .634-.047.906-.14.272-.093.475-.226.608-.399a.91.91 0 00.209-.587c0-.359-.29-.644-.867-.856l-2.16-.807c-.89-.319-1.335-.87-1.335-1.653 0-.345.07-.644.21-.896a1.93 1.93 0 01.607-.667c.219-.153.491-.279.816-.379.299-.08.604-.12.916-.12 1.056 0 1.813.323 2.27.967.107.152.186.335.24.547.06.213.09.475.09.787h-1.046c0-.365-.053-.637-.16-.816-.106-.16-.292-.296-.557-.409a2.057 2.057 0 00-.857-.179c-.451 0-.816.106-1.095.319-.272.206-.408.458-.408.756 0 .213.053.379.16.498.105.113.301.223.587.329l2.28.846c.903.332 1.354.873 1.354 1.623 0 .332-.086.648-.259.946a2.138 2.138 0 01-.697.747c-.418.292-1.035.438-1.852.438-.93 0-1.643-.196-2.14-.587-.492-.392-.738-.953-.738-1.683v-.239zm16.916-4.75h.996v2.938h3.366V60.05h.995v7.13h-.995v-3.296h-3.366v3.296h-.996v-7.13zm18.887 0h1.046l2.549 7.13h-1.086l-.707-2.121h-2.738l-.747 2.12h-1.065l2.748-7.129zm.478 1.086l-1.085 3.116h2.131l-1.046-3.116zm14.018-1.086h2.739a6.4 6.4 0 011.125.08c.259.06.481.163.667.309.524.378.787.926.787 1.643 0 .464-.11.873-.329 1.224a1.742 1.742 0 01-.916.737c-.259.1-.657.15-1.195.15h-1.882v2.987h-.996v-7.13zm.996 3.246h1.553c.558 0 .983-.073 1.275-.219.299-.152.448-.471.448-.956 0-.444-.136-.75-.408-.916-.272-.172-.654-.259-1.145-.259h-1.723v2.35zm15.482-3.246h5.118v.896h-4.122v2.091h3.813v.897h-3.813v2.35h4.172v.896h-5.168v-7.13z" fill="#363431"/><path d="M0 51.83h156M0 12h156" stroke="#363431"/></svg>